# xmcd
#
# Track frame offsets:
#	150
#	17257
#	39133
#	68771
#
# Disc length: 1124 seconds
# Revision: 0
# Processed by: cddbd v1.5.2PL0 Copyright (c) Steve Scherf et al.
# Submitted via: dBpowerAMP V12.0
#
DISCID=1f046204
DTITLE=Oliver Frank - Die Party-Single
DYEAR=2000
DGENRE=Discofox
TTITLE0=Knall auf Fall (Remix)
TTITLE1=Alles OK! (Remix)
TTITLE2=Knall auf Fall (Maxi)
TTITLE3=Katherine Katherine
EXTD=
EXTT0=
EXTT1=
EXTT2=
EXTT3=
PLAYORDER=
